<svg height="1390" width="720" xmlns="http://www.w3.org/2000/svg">
<rect height="1390" fill="#555" width="720"></rect>
<text fill="#7f7" font-family="Courier New" font-size="12" xml:space="preserve">
<tspan x="10" y="26">13 megabytes installed</tspan>
<tspan x="10" y="42"></tspan>
<tspan x="10" y="58">node_modules</tspan>
<tspan x="10" y="74">└─┬ gulp-jasmine-phantom@3.0.0 </tspan>
<tspan x="10" y="90">  ├─┬ glob@4.5.3 </tspan>
<tspan x="10" y="106">  │ ├─┬ inflight@1.0.6 </tspan>
<tspan x="10" y="122">  │ │ └── wrappy@1.0.2 </tspan>
<tspan x="10" y="138">  │ ├── inherits@2.0.3 </tspan>
<tspan x="10" y="154">  │ ├─┬ minimatch@2.0.10 </tspan>
<tspan x="10" y="170">  │ │ └─┬ brace-expansion@1.1.7 </tspan>
<tspan x="10" y="186">  │ │   ├── balanced-match@0.4.2 </tspan>
<tspan x="10" y="202">  │ │   └── concat-map@0.0.1 </tspan>
<tspan x="10" y="218">  │ └── once@1.4.0 </tspan>
<tspan x="10" y="234">  ├─┬ gulp-util@3.0.8 </tspan>
<tspan x="10" y="250">  │ ├── array-differ@1.0.0 </tspan>
<tspan x="10" y="266">  │ ├── array-uniq@1.0.3 </tspan>
<tspan x="10" y="282">  │ ├── beeper@1.1.1 </tspan>
<tspan x="10" y="298">  │ ├─┬ chalk@1.1.3 </tspan>
<tspan x="10" y="314">  │ │ ├── ansi-styles@2.2.1 </tspan>
<tspan x="10" y="330">  │ │ ├── escape-string-regexp@1.0.5 </tspan>
<tspan x="10" y="346">  │ │ ├─┬ has-ansi@2.0.0 </tspan>
<tspan x="10" y="362">  │ │ │ └── ansi-regex@2.1.1 </tspan>
<tspan x="10" y="378">  │ │ ├── strip-ansi@3.0.1 </tspan>
<tspan x="10" y="394">  │ │ └── supports-color@2.0.0 </tspan>
<tspan x="10" y="410">  │ ├── dateformat@2.0.0 </tspan>
<tspan x="10" y="426">  │ ├─┬ fancy-log@1.3.0 </tspan>
<tspan x="10" y="442">  │ │ └── time-stamp@1.0.1 </tspan>
<tspan x="10" y="458">  │ ├─┬ gulplog@1.0.0 </tspan>
<tspan x="10" y="474">  │ │ └── glogg@1.0.0 </tspan>
<tspan x="10" y="490">  │ ├─┬ has-gulplog@0.1.0 </tspan>
<tspan x="10" y="506">  │ │ └── sparkles@1.0.0 </tspan>
<tspan x="10" y="522">  │ ├── lodash._reescape@3.0.0 </tspan>
<tspan x="10" y="538">  │ ├── lodash._reevaluate@3.0.0 </tspan>
<tspan x="10" y="554">  │ ├── lodash._reinterpolate@3.0.0 </tspan>
<tspan x="10" y="570">  │ ├─┬ lodash.template@3.6.2 </tspan>
<tspan x="10" y="586">  │ │ ├── lodash._basecopy@3.0.1 </tspan>
<tspan x="10" y="602">  │ │ ├── lodash._basetostring@3.0.1 </tspan>
<tspan x="10" y="618">  │ │ ├── lodash._basevalues@3.0.0 </tspan>
<tspan x="10" y="634">  │ │ ├── lodash._isiterateecall@3.0.9 </tspan>
<tspan x="10" y="650">  │ │ ├─┬ lodash.escape@3.2.0 </tspan>
<tspan x="10" y="666">  │ │ │ └── lodash._root@3.0.1 </tspan>
<tspan x="10" y="682">  │ │ ├─┬ lodash.keys@3.1.2 </tspan>
<tspan x="10" y="698">  │ │ │ ├── lodash._getnative@3.9.1 </tspan>
<tspan x="10" y="714">  │ │ │ ├── lodash.isarguments@3.1.0 </tspan>
<tspan x="10" y="730">  │ │ │ └── lodash.isarray@3.0.4 </tspan>
<tspan x="10" y="746">  │ │ ├── lodash.restparam@3.6.1 </tspan>
<tspan x="10" y="762">  │ │ └── lodash.templatesettings@3.1.1 </tspan>
<tspan x="10" y="778">  │ ├── minimist@1.2.0 </tspan>
<tspan x="10" y="794">  │ ├─┬ multipipe@0.1.2 </tspan>
<tspan x="10" y="810">  │ │ └─┬ duplexer2@0.0.2 </tspan>
<tspan x="10" y="826">  │ │   └── readable-stream@1.1.14 </tspan>
<tspan x="10" y="842">  │ ├── object-assign@3.0.0 </tspan>
<tspan x="10" y="858">  │ ├── replace-ext@0.0.1 </tspan>
<tspan x="10" y="874">  │ ├─┬ through2@2.0.3 </tspan>
<tspan x="10" y="890">  │ │ └─┬ readable-stream@2.2.9 </tspan>
<tspan x="10" y="906">  │ │   ├── buffer-shims@1.0.0 </tspan>
<tspan x="10" y="922">  │ │   ├── isarray@1.0.0 </tspan>
<tspan x="10" y="938">  │ │   ├── process-nextick-args@1.0.7 </tspan>
<tspan x="10" y="954">  │ │   ├── string_decoder@1.0.0 </tspan>
<tspan x="10" y="970">  │ │   └── util-deprecate@1.0.2 </tspan>
<tspan x="10" y="986">  │ └─┬ vinyl@0.5.3 </tspan>
<tspan x="10" y="1002">  │   ├── clone@1.0.2 </tspan>
<tspan x="10" y="1018">  │   └── clone-stats@0.0.1 </tspan>
<tspan x="10" y="1034">  ├─┬ handlebars@2.0.0 </tspan>
<tspan x="10" y="1050">  │ ├─┬ optimist@0.3.7 </tspan>
<tspan x="10" y="1066">  │ │ └── wordwrap@0.0.3 </tspan>
<tspan x="10" y="1082">  │ └─┬ uglify-js@2.3.6 </tspan>
<tspan x="10" y="1098">  │   ├── async@0.2.10 </tspan>
<tspan x="10" y="1114">  │   └─┬ source-map@0.1.43 </tspan>
<tspan x="10" y="1130">  │     └── amdefine@1.0.1 </tspan>
<tspan x="10" y="1146">  ├─┬ jasmine@2.4.1  (git://github.com/dflynn15/jasmine-npm.git#5f74e4336b247e67bbc509a8f82f3c4f\</tspan>
<tspan x="10" y="1162">a6b52964)</tspan>
<tspan x="10" y="1178">  │ ├── exit@0.1.2 </tspan>
<tspan x="10" y="1194">  │ ├─┬ glob@3.2.11 </tspan>
<tspan x="10" y="1210">  │ │ └─┬ minimatch@0.3.0 </tspan>
<tspan x="10" y="1226">  │ │   ├── lru-cache@2.7.3 </tspan>
<tspan x="10" y="1242">  │ │   └── sigmund@1.0.1 </tspan>
<tspan x="10" y="1258">  │ └── jasmine-core@2.4.1 </tspan>
<tspan x="10" y="1274">  ├── lodash@4.17.4 </tspan>
<tspan x="10" y="1290">  └─┬ through2@0.6.5 </tspan>
<tspan x="10" y="1306">    ├─┬ readable-stream@1.0.34 </tspan>
<tspan x="10" y="1322">    │ ├── core-util-is@1.0.2 </tspan>
<tspan x="10" y="1338">    │ ├── isarray@0.0.1 </tspan>
<tspan x="10" y="1354">    │ └── string_decoder@0.10.31 </tspan>
<tspan x="10" y="1370">    └── xtend@4.0.1</tspan>
</text>
</svg>
